<svg width="27" height="27" fill="none" xmlns="http://www.w3.org/2000/svg"><path fill-rule="evenodd" clip-rule="evenodd" d="M26 12.92V26h-7.5v-7.25a4 4 0 0 0-4-4h-2a4 4 0 0 0-4 4V26H1V12.92L13.5 1 26 12.92Z" fill="#000"/><path d="M26 26v.5h.5V26H26Zm0-13.08h.5v-.214l-.155-.148-.345.362ZM18.5 26H18v.5h.5V26Zm-10 0v.5H9V26h-.5ZM1 26H.5v.5H1V26Zm0-13.08-.345-.362-.155.148v.214H1ZM13.5 1l.345-.362L13.5.31l-.345.33L13.5 1Zm13 25V12.92h-1V26h1Zm-8 .5H26v-1h-7.5v1Zm.5-.5v-7.25h-1V26h1Zm0-7.25a4.5 4.5 0 0 0-4.5-4.5v1a3.5 3.5 0 0 1 3.5 3.5h1Zm-4.5-4.5h-2v1h2v-1Zm-2 0a4.5 4.5 0 0 0-4.5 4.5h1a3.5 3.5 0 0 1 3.5-3.5v-1ZM8 18.75V26h1v-7.25H8ZM1 26.5h7.5v-1H1v1ZM.5 12.92V26h1V12.92h-1ZM13.155.638l-12.5 11.92.69.724 12.5-11.92-.69-.724Zm13.19 11.92L13.845.638l-.69.724 12.5 11.92.69-.724Z" fill="#000"/></svg>