<svg width="24" height="24" fill="none" xmlns="http://www.w3.org/2000/svg"><path d="m12.314 6.183-.65-.63-.39-.377c-.22-.213-.428-.414-.632-.615C9 2.954 6.742 2.498 4.933 3.28 3.119 4.062 1.857 6.056 1.9 8.288c.033 1.692.742 3.192 1.775 4.676 2.255 3.244 5.314 5.68 8.577 8.066 2.378-1.731 4.642-3.518 6.597-5.633l.661.611-.66-.61c1.658-1.796 3.024-3.611 3.582-5.859.588-2.367-.418-4.832-2.333-5.985l-7.786 2.63Zm0 0 .627-.653m-.627.653.627-.653m0 0c.144-.15.271-.289.39-.419.23-.249.432-.468.67-.684h.001M12.94 5.53l1.062-1.104m0 0c1.863-1.694 4.276-1.967 6.098-.872l-6.098.872Z" stroke="#000" stroke-width="1.8"/></svg>