<svg width="27" height="27" viewBox="0 0 27 27" fill="none" xmlns="http://www.w3.org/2000/svg">
<path fill-rule="evenodd" clip-rule="evenodd" d="M26 12.9197V26H18.5V18.75C18.5 16.5409 16.7091 14.75 14.5 14.75H12.5C10.2909 14.75 8.5 16.5409 8.5 18.75L8.5 26H1L1 12.9197L13.5 1L26 12.9197Z" fill="black"/>
<path d="M26 26V26.5H26.5V26H26ZM26 12.9197H26.5V12.7056L26.3451 12.5579L26 12.9197ZM18.5 26H18V26.5H18.5V26ZM8.5 26V26.5H9V26H8.5ZM1 26H0.5L0.5 26.5H1V26ZM1 12.9197L0.654946 12.5579L0.5 12.7056V12.9197H1ZM13.5 1L13.8451 0.638147L13.5 0.309111L13.1549 0.638147L13.5 1ZM26.5 26V12.9197H25.5V26H26.5ZM18.5 26.5H26V25.5H18.5V26.5ZM19 26V18.75H18V26H19ZM19 18.75C19 16.2647 16.9853 14.25 14.5 14.25V15.25C16.433 15.25 18 16.817 18 18.75H19ZM14.5 14.25H12.5V15.25H14.5V14.25ZM12.5 14.25C10.0147 14.25 8 16.2647 8 18.75H9C9 16.817 10.567 15.25 12.5 15.25V14.25ZM8 18.75L8 26H9V18.75H8ZM1 26.5H8.5V25.5H1V26.5ZM0.5 12.9197L0.5 26H1.5L1.5 12.9197H0.5ZM13.1549 0.638147L0.654946 12.5579L1.34505 13.2816L13.8451 1.36185L13.1549 0.638147ZM26.3451 12.5579L13.8451 0.638147L13.1549 1.36185L25.6549 13.2816L26.3451 12.5579Z" fill="black"/>
</svg>
